<svg width="20" height="20" viewBox="0 0 20 20" fill="none" xmlns="http://www.w3.org/2000/svg">
<g clip-path="url(#clip0_2158_2067)">
<path d="M17.5013 9.99935H18.3346M15.418 4.58268L16.2513 3.74935M10.0013 2.49935V1.66602M4.58464 4.58268L3.7513 3.74935M2.5013 9.99935H1.66797M14.168 9.99935C14.1678 9.24819 13.9645 8.51106 13.5797 7.86596C13.1949 7.22086 12.6428 6.69179 11.9819 6.33472C11.3211 5.97766 10.576 5.80588 9.82548 5.83758C9.075 5.86928 8.34703 6.10326 7.71863 6.51478C7.09022 6.92629 6.58475 7.50003 6.2557 8.17528C5.92664 8.85053 5.78625 9.60217 5.84937 10.3507C5.9125 11.0992 6.17679 11.8167 6.61428 12.4273C7.05177 13.0379 7.64619 13.5189 8.33464 13.8193V15.8327H11.668V13.8193C12.4112 13.495 13.0436 12.9608 13.4877 12.2822C13.9318 11.6037 14.1682 10.8103 14.168 9.99935Z" stroke="#7A28A0" stroke-width="1.5" stroke-linecap="round" stroke-linejoin="round"/>
<path d="M9.16536 19.1667C8.66536 19.1667 8.33203 18.8333 8.33203 18.3333V17.5H11.6654V18.3333C11.6654 18.8333 11.332 19.1667 10.832 19.1667H9.16536Z" fill="#7A28A0"/>
</g>
<defs>
<clipPath id="clip0_2158_2067">
<rect width="20" height="20" fill="white"/>
</clipPath>
</defs>
</svg>
