<svg width="20" height="20" viewBox="0 0 20 20" fill="none" xmlns="http://www.w3.org/2000/svg">
<path d="M3.60426 3.60414L3.07393 3.07381V3.07381L3.60426 3.60414ZM2.33788 4.87052L1.58789 4.87429C1.58996 5.28556 1.92285 5.61844 2.33411 5.62051L2.33788 4.87052ZM4.87967 5.6333C5.29387 5.63539 5.63134 5.30129 5.63343 4.88708C5.63551 4.47287 5.30141 4.1354 4.8872 4.13332L4.87967 5.6333ZM3.07508 2.3212C3.073 1.90699 2.73553 1.5729 2.32132 1.57498C1.90711 1.57706 1.57302 1.91453 1.5751 2.32874L3.07508 2.3212ZM1.82673 8.78492C1.88298 8.37454 1.5959 7.99627 1.18553 7.94002C0.77515 7.88377 0.396874 8.17084 0.340624 8.58122L1.82673 8.78492ZM16.332 3.6681L16.8624 3.13777C13.0422 -0.682421 6.86885 -0.721108 3.07393 3.07381L3.60426 3.60414L4.13459 4.13447C7.3337 0.935364 12.5572 0.95395 15.8017 4.19843L16.332 3.6681ZM3.66822 16.3319L3.13789 16.8622C6.95808 20.6824 13.1314 20.7211 16.9263 16.9262L16.396 16.3959L15.8657 15.8655C12.6665 19.0646 7.44303 19.0461 4.19855 15.8016L3.66822 16.3319ZM16.396 16.3959L16.9263 16.9262C20.7212 13.1313 20.6825 6.95796 16.8624 3.13777L16.332 3.6681L15.8017 4.19843C19.0462 7.44291 19.0648 12.6664 15.8657 15.8655L16.396 16.3959ZM3.60426 3.60414L3.07393 3.07381L1.80755 4.34019L2.33788 4.87052L2.86821 5.40085L4.13459 4.13447L3.60426 3.60414ZM2.33788 4.87052L2.33411 5.62051L4.87967 5.6333L4.88343 4.88331L4.8872 4.13332L2.34165 4.12053L2.33788 4.87052ZM2.33788 4.87052L3.08787 4.86675L3.07508 2.3212L2.32509 2.32497L1.5751 2.32874L1.58789 4.87429L2.33788 4.87052ZM1.08368 8.68307L0.340624 8.58122C-0.0608079 11.5099 0.874041 14.5984 3.13789 16.8622L3.66822 16.3319L4.19855 15.8016C2.27798 13.881 1.48676 11.2652 1.82673 8.78492L1.08368 8.68307Z" fill="#6F2496" fill-opacity="0.8"/>
</svg>
