<svg width="20" height="20" viewBox="0 0 20 20" fill="none" xmlns="http://www.w3.org/2000/svg">
<path d="M17.279 10.4894L18.5305 11.6039C18.7616 11.7968 18.9161 12.066 18.9658 12.3629C19.0156 12.6598 18.9575 12.9647 18.8019 13.2224L17.2928 15.8002C17.1757 15.9976 17.0086 16.1604 16.8082 16.2723C16.6056 16.3845 16.3781 16.444 16.1465 16.4454C16.0028 16.4463 15.8599 16.4248 15.7228 16.3817L14.121 15.8528C13.8404 16.0328 13.5488 16.1939 13.246 16.336L12.9096 17.96C12.8473 18.2587 12.681 18.5256 12.4403 18.7131C12.1965 18.904 11.8942 19.0048 11.5847 18.9983H8.45991C8.15036 19.0048 7.84811 18.904 7.60431 18.7131C7.36408 18.5254 7.19826 18.2585 7.13637 17.96L6.79856 16.336C6.49979 16.192 6.20991 16.0302 5.9305 15.8515L4.32313 16.3817C4.18607 16.4248 4.04315 16.4463 3.89948 16.4454C3.66836 16.4437 3.44133 16.3842 3.23909 16.2723C3.03895 16.1608 2.8718 15.9984 2.75453 15.8016L1.19147 13.2224C1.02897 12.9623 0.966881 12.652 1.01684 12.3494C1.06679 12.0469 1.22536 11.773 1.46282 11.579L2.713 9.99932V9.50922L1.46144 8.39472C1.23032 8.20186 1.07589 7.93262 1.02612 7.63574C0.976343 7.33887 1.03451 7.03398 1.19008 6.77628L2.75315 4.1984C2.87022 4.00107 3.03739 3.8382 3.23771 3.7263C3.43994 3.6144 3.66697 3.5549 3.8981 3.55324C4.04047 3.54426 4.18337 3.55734 4.32175 3.59201L5.89727 4.1458C6.17878 3.96581 6.47044 3.80475 6.77225 3.66262L7.11006 2.03864C7.17195 1.7401 7.33778 1.47322 7.57801 1.28549C7.82181 1.09463 8.12406 0.993882 8.43361 1.00029H11.532C11.8416 0.993882 12.1438 1.09463 12.3876 1.28549C12.6299 1.47516 12.7961 1.74236 12.8556 2.03864L13.1934 3.66262C13.4934 3.80568 13.7827 3.9672 14.0615 4.14718L15.6702 3.61831C15.8488 3.56023 16.0374 3.53984 16.2243 3.55843C16.4111 3.57701 16.592 3.63418 16.7556 3.7263C16.9564 3.83983 17.1225 4.00319 17.2402 4.19702L18.8019 6.77628C18.9666 7.0341 19.0318 7.34303 18.9854 7.64542C18.9391 7.94782 18.7843 8.22301 18.5499 8.41964L17.279 9.50229V10.4894Z" stroke="#6F2496" stroke-opacity="0.8" stroke-width="1.5"/>
<path d="M13.4605 9.99925C13.4605 10.9172 13.0959 11.7976 12.4468 12.4467C11.7977 13.0958 10.9173 13.4604 9.99937 13.4604C9.08142 13.4604 8.20105 13.0958 7.55196 12.4467C6.90287 11.7976 6.53821 10.9172 6.53821 9.99925C6.53821 9.08129 6.90287 8.20093 7.55196 7.55184C8.20105 6.90274 9.08142 6.53809 9.99937 6.53809C10.9173 6.53809 11.7977 6.90274 12.4468 7.55184C13.0959 8.20093 13.4605 9.08129 13.4605 9.99925Z" stroke="#6F2496" stroke-opacity="0.8" stroke-width="1.5"/>
</svg>
