<svg width="24" height="20" viewBox="0 0 24 20" fill="none" xmlns="http://www.w3.org/2000/svg">
<path d="M11.7643 19.2159C12.447 19.2159 12.939 18.7136 12.939 18.0408V2.01951C12.939 1.34665 12.447 0.783936 11.7437 0.783936C11.2517 0.783936 10.9303 1.02522 10.3877 1.50736L5.66698 5.69579C5.60655 5.75579 5.51612 5.78622 5.41584 5.78622H2.43255C1.00626 5.78622 0.302979 6.49936 0.302979 8.01608V12.0142C0.302979 13.5314 1.00584 14.2441 2.43255 14.2441H5.41541C5.51612 14.2441 5.60655 14.2741 5.66698 14.3345L10.3877 18.5636C10.8801 19.0051 11.2718 19.2164 11.7638 19.2164M20.4424 17.1674C20.8337 17.4284 21.3158 17.3281 21.5974 16.9261C22.923 15.0781 23.6966 12.6172 23.6966 10.0458C23.6966 7.46408 22.9333 5.00322 21.5974 3.15479C21.306 2.76308 20.8337 2.66279 20.442 2.92379C20.0606 3.18522 20.0001 3.67722 20.3014 4.10922C21.3964 5.71636 22.0795 7.82579 22.0795 10.0458C22.0795 12.2658 21.4165 14.3949 20.3014 15.9819C20.01 16.4139 20.061 16.9059 20.4424 17.1674ZM11.1805 17.0971C11.1304 17.0971 11.07 17.0671 11.0095 17.0066L6.56141 12.9982C6.32012 12.7771 6.11912 12.7269 5.84826 12.7269H2.50284C2.11112 12.7269 1.91998 12.5461 1.91998 12.1441V7.88536C1.91998 7.49365 2.11112 7.30294 2.50284 7.30294H5.84784C6.11869 7.30294 6.30984 7.26265 6.56098 7.03165L11.0104 2.99365C11.061 2.95379 11.121 2.91351 11.1814 2.91351C11.2714 2.91351 11.322 2.97351 11.322 3.05408V16.9458C11.322 17.0362 11.2718 17.0966 11.1814 17.0966M16.4348 14.4549C16.7764 14.6958 17.2684 14.6152 17.5598 14.2235C18.3433 13.1692 18.8155 11.6221 18.8155 10.0449C18.8155 8.46779 18.3334 6.93136 17.5598 5.85651C17.2684 5.46479 16.7863 5.38422 16.4348 5.62508C15.9925 5.91651 15.9424 6.42908 16.2638 6.87093C16.8467 7.65436 17.1981 8.84965 17.1981 10.0449C17.1981 11.2406 16.8265 12.4359 16.254 13.2292C15.9527 13.6612 16.0028 14.1532 16.4348 14.4549Z" fill="#6F2496"/>
</svg>
