<svg width="18" height="17" viewBox="0 0 18 17" fill="none" xmlns="http://www.w3.org/2000/svg">
<path d="M8.99963 1.27515C9.04819 1.27515 9.1091 1.28662 9.19006 1.33276C9.22071 1.35024 9.2505 1.37587 9.27893 1.44409L9.27991 1.44702L10.9205 5.34155C11.1652 5.92225 11.7117 6.31975 12.3395 6.37476L16.5573 6.7439C16.6922 6.76403 16.7349 6.79807 16.7389 6.80151C16.7746 6.83279 16.8119 6.88072 16.8424 6.9646C16.8636 7.02297 16.8678 7.07655 16.8541 7.14038C16.8483 7.16728 16.8315 7.21144 16.7594 7.27612L13.5494 10.0505C13.0716 10.4634 12.8623 11.1074 13.0055 11.7224L13.9674 15.8562V15.8572C13.9872 15.943 13.9733 15.9746 13.9674 15.9871C13.9301 16.0656 13.8828 16.1245 13.8219 16.1716C13.7846 16.2005 13.7389 16.2208 13.6647 16.2273C13.6317 16.2302 13.5919 16.2269 13.527 16.1853L13.5114 16.1755L9.87756 13.9861C9.33793 13.661 8.66232 13.661 8.12268 13.9861L4.48889 16.1755L4.48108 16.1794L4.47424 16.1843C4.40863 16.2261 4.36731 16.2302 4.33264 16.2273C4.26025 16.2212 4.21591 16.2011 4.17932 16.1726C4.11698 16.1241 4.06917 16.0643 4.03186 15.9861C4.02666 15.9752 4.01258 15.9445 4.03186 15.8591L4.99475 11.7224C5.13792 11.1074 4.92847 10.4635 4.45081 10.0505L1.23303 7.27026C1.16833 7.20928 1.15287 7.16624 1.14709 7.1394C1.13312 7.07429 1.13698 7.02036 1.15784 6.96265C1.18733 6.88103 1.22438 6.83389 1.26135 6.80151C1.2659 6.7976 1.30776 6.76345 1.44006 6.7439L5.66077 6.37476C6.28843 6.31975 6.83402 5.92215 7.07874 5.34155L8.72034 1.44702L8.72131 1.44409C8.74973 1.37595 8.77955 1.35023 8.81018 1.33276C8.89084 1.28684 8.95118 1.2752 8.99963 1.27515Z" stroke="#6F2496" stroke-width="1.4"/>
</svg>
