<svg width="20" height="20" viewBox="0 0 20 20" fill="none" xmlns="http://www.w3.org/2000/svg">
<path d="M7.20203 3.48047C7.76929 1.82045 10.0619 1.76708 10.7382 3.32324V3.32422L10.7987 3.48438L11.6044 5.8418C11.7939 6.3964 12.1005 6.90387 12.5028 7.33008C12.9052 7.75636 13.3945 8.09133 13.9374 8.3125L13.9403 8.31348L14.1571 8.39453L14.16 8.39551L16.5194 9.20117C18.1798 9.76855 18.2328 12.0625 16.6766 12.7383L16.5194 12.7979L14.16 13.6045C13.6051 13.7939 13.0973 14.1005 12.6708 14.5029C12.2443 14.9054 11.9087 15.3945 11.6874 15.9375L11.6864 15.9395L11.6053 16.1562L11.6044 16.1592L10.7987 18.5195C10.2312 20.1804 7.93571 20.233 7.2616 18.6758H7.26257L7.20203 18.5195L6.39539 16.1602C6.20595 15.6052 5.90037 15.0964 5.49792 14.6699C5.09548 14.2434 4.60541 13.9088 4.06238 13.6875L4.06042 13.6865L3.84363 13.6055L3.84167 13.6045L1.48132 12.7988C-0.180365 12.2313 -0.232614 9.93708 1.32507 9.2627L1.48523 9.2002L1.48425 9.19922L3.84167 8.39551C4.3963 8.20593 4.90374 7.89942 5.32996 7.49707C5.75624 7.09464 6.0912 6.60541 6.31238 6.0625L6.31335 6.06055L6.39441 5.84375L6.39539 5.84082L7.20203 3.48047ZM8.90515 4.06152L8.09949 6.42188C7.82257 7.23338 7.37184 7.97506 6.77917 8.59473C6.18711 9.2137 5.46718 9.69603 4.6698 10.0088L4.4198 10.0996L2.0614 10.9053L1.78503 11L2.0614 11.0947L4.42175 11.9004C5.2333 12.1773 5.97492 12.628 6.5946 13.2207C7.21338 13.8125 7.69587 14.5321 8.00867 15.3291V15.3301L8.09949 15.5771V15.5781L8.90515 17.9385L8.99988 18.2158L9.0946 17.9385L9.90027 15.5781C10.1772 14.7666 10.6279 14.025 11.2206 13.4053C11.8132 12.7857 12.5336 12.302 13.3319 11.9893L13.579 11.9004L15.9384 11.0947L16.2157 11L15.9384 10.9053L13.578 10.0996C12.7665 9.82269 12.0248 9.37194 11.4052 8.7793C10.8629 8.26066 10.4255 7.64384 10.1151 6.96289L9.99011 6.66797L9.90027 6.41992L9.0946 4.06152L8.99988 3.78516L8.90515 4.06152ZM16.9999 0.0996094C17.1683 0.099609 17.3336 0.147234 17.4764 0.236328C17.6179 0.324593 17.7324 0.450305 17.8065 0.599609L17.8534 0.714844L18.201 1.73535L18.2177 1.78223L18.2635 1.79785L19.2909 2.14746C19.4595 2.20474 19.6074 2.31085 19.7157 2.45215C19.824 2.59362 19.8879 2.76455 19.8993 2.94238C19.9107 3.12003 19.8694 3.29716 19.7802 3.45117C19.6913 3.60426 19.5589 3.7282 19.4003 3.80664L19.2841 3.85352L18.2645 4.20117L18.2186 4.2168L18.202 4.26367L17.8524 5.29102C17.795 5.45962 17.6882 5.6076 17.5468 5.71582C17.4054 5.82387 17.2351 5.88713 17.0575 5.89844C16.8797 5.90971 16.7018 5.86882 16.5477 5.7793C16.4322 5.71214 16.3338 5.61996 16.2587 5.51074L16.1923 5.39648L16.1464 5.28516L15.7987 4.26465L15.7831 4.21777L15.7362 4.20215L14.7089 3.85254C14.5403 3.79523 14.3924 3.68915 14.2841 3.54785C14.1757 3.40638 14.1118 3.23545 14.1005 3.05762C14.0891 2.87984 14.1312 2.70292 14.2206 2.54883C14.2877 2.43322 14.379 2.33398 14.4882 2.25879L14.6034 2.19141L14.7147 2.14648L14.7137 2.14551L15.7352 1.79883L15.7821 1.7832L15.7977 1.73633L16.1473 0.708984C16.208 0.53125 16.3236 0.376807 16.4764 0.267578C16.6292 0.158518 16.8122 0.099506 16.9999 0.0996094Z" fill="#444444" stroke="white" stroke-width="0.2"/>
</svg>
